<?xml version="1.0" encoding="UTF-8"?>
<svg width="47px" height="29px" viewBox="0 0 47 29" version="1.1" xmlns="http://www.w3.org/2000/svg" xmlns:xlink="http://www.w3.org/1999/xlink">
    <!-- Generator: Sketch 53.2 (72643) - https://sketchapp.com -->
    <title>behance-logo</title>
    <desc>Created with Sketch.</desc>
    <g id="Page-1" stroke="none" stroke-width="1" fill="none" fill-rule="evenodd">
        <g id="rtfhgjk" transform="translate(-894.000000, -664.000000)" fill="#E6E6E6" fill-rule="nonzero">
            <g id="behance-logo" transform="translate(893.250000, 663.720833)">
                <path d="M43.1943709,4.38303021 L31.4179025,4.38303021 L31.4179025,1.4822717 L43.1953543,1.4822717 L43.1953543,4.38303021 L43.1943709,4.38303021 L43.1943709,4.38303021 Z M23.5780327,16.2780906 C24.3379036,17.4452205 24.7176205,18.8623337 24.7176205,20.526071 C24.7176205,22.2465881 24.2894965,23.7900474 23.418497,25.1534147 C22.8643835,26.055608 22.176413,26.8176937 21.3497776,27.4312199 C20.4187883,28.1407517 19.3165712,28.6272816 18.0494642,28.8872338 C16.7783141,29.1476194 15.4024824,29.2791667 13.9204392,29.2791667 L0.75,29.2791667 L0.75,0.279166667 L14.8732827,0.279166667 C18.4332241,0.336596701 20.9570574,1.3593931 22.4474052,3.36803563 C23.3416795,4.59996404 23.7847735,6.07819144 23.7847735,7.79643304 C23.7847735,9.56939571 23.3363252,10.9880259 22.4333093,12.0658685 C21.9309903,12.6701841 21.1889306,13.2198871 20.2065839,13.7160609 C21.6945277,14.2562283 22.8235162,15.1068429 23.5780327,16.2780906 Z M7.49442749,11.7124029 L13.6826654,11.7124029 C14.9543618,11.7124029 15.9823838,11.4727137 16.7741618,10.9935522 C17.5653934,10.5151492 17.9601897,9.66475124 17.9601897,8.44376705 C17.9601897,7.0948114 17.437437,6.19944466 16.3894184,5.76850269 C15.4885879,5.469108 14.3359969,5.31491378 12.9374368,5.31491378 L7.49442749,5.31491378 L7.49442749,11.7124029 Z M18.5560447,20.1118162 C18.5560447,18.6054156 17.9351667,17.5639815 16.6959237,17.0051765 C16.0029267,16.6875775 15.0251694,16.5252564 13.7715027,16.5136621 L7.49442749,16.5136621 L7.49442749,24.2420109 L13.6743608,24.2420109 C14.943981,24.2420109 15.9266556,24.0771975 16.6358246,23.7333758 C17.914733,23.101212 18.5560447,21.898107 18.5560447,20.1118162 Z M47.5637922,15.3939931 C47.7060631,16.3427806 47.7704237,17.7193677 47.744308,19.5186615 L32.4924739,19.5186615 C32.5766126,21.6062974 33.3033744,23.0662122 34.6817193,23.9016567 C35.5129442,24.4255703 36.520751,24.6814048 37.7008783,24.6814048 C38.945257,24.6814048 39.9595108,24.3694406 40.7402525,23.7281746 C41.1656446,23.3882538 41.5408814,22.9084422 41.8653071,22.3030429 L47.4556139,22.3030429 C47.3091907,23.5360549 46.636081,24.786621 45.4264505,26.0574501 C43.5523428,28.0773619 40.9239371,29.0901893 37.5483359,29.0901893 C34.7597389,29.0901893 32.3021238,28.2359989 30.1689344,26.5337943 C28.0428477,24.8256301 26.975051,22.0553353 26.975051,18.2123991 C26.975051,14.6087187 27.9336859,11.8504516 29.8574026,9.93055478 C31.788222,8.00708207 34.280039,7.04973424 37.3515388,7.04973424 C39.1721037,7.04973424 40.8132455,7.37242602 42.2773683,8.02116868 C43.7369016,8.6705615 44.9431447,9.69259939 45.8931472,11.0972513 C46.7528918,12.3342726 47.3058032,13.7646055 47.5637922,15.3939931 Z M42.0612301,15.9351357 C41.9587339,14.4915831 41.4726963,13.3990038 40.5975445,12.652305 C39.7296046,11.9035473 38.645308,11.5276515 37.3515388,11.5276515 C35.9434721,11.5276515 34.8562252,11.929445 34.0836789,12.7191622 C33.3058876,13.507254 32.8219261,14.5787033 32.6235992,15.9352441 L42.0612301,15.9352441 L42.0612301,15.9351357 Z" id="Behance"></path>
            </g>
        </g>
    </g>
</svg>