<?xml version="1.0" encoding="UTF-8"?>
<svg width="49px" height="48px" viewBox="0 0 49 48" version="1.1" xmlns="http://www.w3.org/2000/svg" xmlns:xlink="http://www.w3.org/1999/xlink">
    <!-- Generator: Sketch 53.2 (72643) - https://sketchapp.com -->
    <title>dribbble-logo</title>
    <desc>Created with Sketch.</desc>
    <g id="Page-1" stroke="none" stroke-width="1" fill="none" fill-rule="evenodd">
        <g id="rtfhgjk" transform="translate(-1063.000000, -658.000000)" fill="#E6E6E6" fill-rule="nonzero">
            <g id="dribbble-logo" transform="translate(1064.000000, 658.000000)">
                <path d="M23.7490514,0.545833333 C10.4939418,0.546816787 -0.25,11.0675821 -0.25,24.0468714 C-0.25,37.0238661 10.4939418,47.5458333 23.7490514,47.5458333 C37.0041611,47.5458333 47.7485492,37.0238661 47.75,24.0468714 C47.7485492,11.0675821 37.0041611,0.546816787 23.7490514,0.545833333 Z M38.4541479,12.7303831 C40.7957992,15.6419514 42.2619677,19.247182 42.4468848,23.1842736 C39.7375197,22.6211919 37.1775837,22.3471362 34.7910702,22.3471362 L34.7910702,22.3465899 L34.7734378,22.3465899 C32.8520629,22.3465899 31.0488698,22.5173829 29.3493509,22.8125282 C28.9363284,21.8213165 28.5176144,20.8692244 28.0957757,19.9573446 C31.8807179,18.3318055 35.5136643,16.0171935 38.4541479,12.7303831 Z M23.7490514,5.71224154 C28.1656357,5.71224154 32.2172961,7.22413714 35.4250559,9.74112206 C32.9703563,12.6187065 29.7303449,14.7027534 26.2301996,16.1743274 C23.7708129,11.5176759 21.3943433,8.1863916 19.7698179,6.14976901 C21.0557563,5.87035899 22.3830975,5.71224154 23.7490514,5.71224154 Z M15.4786692,7.6234192 C16.7783342,9.12657299 19.380454,12.4328338 22.1596792,17.5948712 C16.5073753,19.242374 10.8156775,19.6294176 7.37188893,19.6284341 C7.27368309,19.6284341 7.17659323,19.6284341 7.08128893,19.6274507 L7.0781642,19.6274507 C6.49819177,19.6274507 5.99946236,19.6184903 5.58309193,19.6060332 C6.92661474,14.3419353 10.6096684,9.98228667 15.4786692,7.6234192 Z M5.02476942,24.0468714 C5.02476942,23.9606553 5.02789415,23.8730187 5.03313924,23.7827596 C5.56780306,23.8021008 6.25345836,23.8187102 7.07872218,23.8187102 L7.08340928,23.8187102 C10.8472596,23.7946703 17.418904,23.4867401 24.0788222,21.4279352 C24.441849,22.2051911 24.801193,23.014464 25.156408,23.8546609 C20.7089112,25.3111553 17.2060875,27.6315588 14.615239,29.9423464 C12.1210339,32.1668086 10.435911,34.3700719 9.45128593,35.840881 C6.69605421,32.6467338 5.02622019,28.5419088 5.02476942,24.0468714 Z M23.7490514,42.3818291 C19.5821108,42.3818291 15.7414814,41.0324219 12.6257896,38.7681845 C13.2880094,37.7002634 14.707865,35.650091 16.9688312,33.5316232 C19.2950819,31.3489032 22.5063012,29.1019309 26.6990208,27.7647621 C28.1241215,31.6763932 29.4136311,36.1479369 30.3959126,41.1813604 C28.3265594,41.9529342 26.090591,42.3818291 23.7490514,42.3818291 Z M34.3464656,39.1261615 C33.3964357,34.5739745 32.2021188,30.4691495 30.8907361,26.8058951 C32.1068145,26.6351021 33.3833788,26.5387236 34.7308075,26.5387236 L34.7792409,26.5387236 L34.7823656,26.5387236 L34.7854903,26.5387236 C37.0187804,26.5387236 39.4729219,26.8104846 42.1344117,27.4026328 C41.2130624,32.2505114 38.3453403,36.4257079 34.3464656,39.1261615 Z" id="Dribbble"></path>
            </g>
        </g>
    </g>
</svg>