<?xml version="1.0" encoding="UTF-8"?>
<svg width="49px" height="47px" viewBox="0 0 49 47" version="1.1" xmlns="http://www.w3.org/2000/svg" xmlns:xlink="http://www.w3.org/1999/xlink">
    <!-- Generator: Sketch 53.2 (72643) - https://sketchapp.com -->
    <title>linkedin-logo</title>
    <desc>Created with Sketch.</desc>
    <g id="Page-1" stroke="none" stroke-width="1" fill="none" fill-rule="evenodd">
        <g id="rtfhgjk" transform="translate(-1151.000000, -655.000000)" fill="#E6E6E6" fill-rule="nonzero">
            <g id="linkedin-logo" transform="translate(1152.000000, 655.000000)">
                <path d="M47.75,28.2341111 L47.75,46.0315476 L37.4620458,46.0315476 L37.4620458,29.4260761 C37.4620458,25.2546463 35.9740042,22.4078086 32.2501058,22.4078086 C29.4073816,22.4078086 27.7156745,24.3263686 26.9714304,26.1822525 C26.7000252,26.8457237 26.6301652,27.7691888 26.6301652,28.6979142 L26.6301652,46.0315476 L16.3387514,46.0315476 C16.3387514,46.0315476 16.4773556,17.9073292 16.3387514,14.9934505 L26.6291608,14.9934505 L26.6291608,19.3929765 C26.608292,19.4258815 26.5811738,19.4613606 26.5615327,19.4932583 L26.6291608,19.4932583 L26.6291608,19.3929765 C27.9963423,17.2811279 30.4379849,14.2642813 35.9031397,14.2642813 C42.6740974,14.2641694 47.75,18.7004057 47.75,28.2341111 Z M5.57349454,0.031547619 C2.05281528,0.031547619 -0.25,2.34754122 -0.25,5.3931517 C-0.25,8.37239268 1.98619155,10.758673 5.43689915,10.758673 L5.50564323,10.758673 C9.09450859,10.758673 11.3264594,8.37284036 11.3264594,5.3931517 C11.2588313,2.34754122 9.09450859,0.031547619 5.57349454,0.031547619 Z M0.361219738,46.0315476 L10.6487276,46.0315476 L10.6487276,14.9934505 L0.361219738,14.9934505 L0.361219738,46.0315476 Z" id="LinkedIn"></path>
            </g>
        </g>
    </g>
</svg>