<?xml version="1.0" encoding="UTF-8"?>
<svg width="49px" height="40px" viewBox="0 0 49 40" version="1.1" xmlns="http://www.w3.org/2000/svg" xmlns:xlink="http://www.w3.org/1999/xlink">
    <!-- Generator: Sketch 53.2 (72643) - https://sketchapp.com -->
    <title>Twitter_Bird</title>
    <desc>Created with Sketch.</desc>
    <g id="Page-1" stroke="none" stroke-width="1" fill="none" fill-rule="evenodd">
        <g id="rtfhgjk" transform="translate(-971.000000, -658.000000)" fill="#E6E6E6" fill-rule="nonzero">
            <g id="Twitter_Bird" transform="translate(972.000000, 658.000000)">
                <path d="M14.8456378,39.3557836 C32.9600577,39.3557836 42.865434,24.3527568 42.865434,11.3431603 C42.865434,10.917023 42.8567521,10.4928085 42.8376327,10.0705118 C44.76053,8.6807749 46.4319074,6.94648142 47.75,4.97224618 C45.9855026,5.75637338 44.0866053,6.28424461 42.0945848,6.52226686 C44.1278853,5.30336459 45.6888595,3.37520077 46.4251874,1.0765654 C44.5224484,2.20428781 42.4152279,3.02392752 40.1716858,3.46637741 C38.3745485,1.55260829 35.8161232,0.355783582 32.9831364,0.355783582 C27.5446827,0.355783582 23.1343985,4.76493928 23.1343985,10.2000802 C23.1343985,10.9726888 23.2207985,11.7241859 23.3897617,12.4449661 C15.2047228,12.0332284 7.94704855,8.11547326 3.09036282,2.15821961 C2.24459332,3.61322141 1.7569102,5.30336459 1.7569102,7.10676037 C1.7569102,10.5225609 3.49548596,13.538139 6.1393512,15.3021849 C4.52365703,15.2522777 3.00588122,14.8088648 1.67914699,14.0708074 C1.67769733,14.1121155 1.67769733,14.1523881 1.67769733,14.1965368 C1.67769733,18.9646422 5.07229208,22.9457427 9.57857628,23.8479197 C8.75104839,24.0734651 7.8803189,24.1943941 6.98175103,24.1943941 C6.34814471,24.1943941 5.73085839,24.1320488 5.13085368,24.0168396 C6.3846247,27.9288362 10.0201794,30.7754944 14.3306236,30.8551572 C10.9600289,33.4964249 6.71390786,35.0694796 2.09914369,35.0694796 C1.30521418,35.0694796 0.520887898,35.0243325 -0.25,34.9331913 C4.10844422,37.7261065 9.28385472,39.3557836 14.8461468,39.3557836" id="path3611"></path>
            </g>
        </g>
    </g>
</svg>